Coordinates
version=1
nRows=49
nColumns=12
inDegrees=yes

Units are S.I. units (second, meters, Newtons, ...)
Angles are in degrees

endheader
time	SC_y	SC_z	SC_x	AC_y	AC_z	AC_x	GH_y	GH_z	GH_yy	EL_x	PS_y
       0.0              -38.59          30.57          53.67          46.48         -5.215         -14.58          88.41          -16.2         -4.229          123.0          18.55
   0.02672              -38.59          30.57          53.67          46.48         -5.214         -14.58          88.41         -16.19          -4.21          123.0          18.54
   0.05344              -38.58          30.57          53.66          46.48         -5.212         -14.58           88.4         -16.18          -4.19          122.9          18.54
   0.08016              -38.58          30.57          53.66          46.48         -5.211         -14.58          88.39         -16.18         -4.169          122.9          18.54
    0.1069              -38.58          30.57          53.66          46.48          -5.21         -14.58          88.38         -16.17         -4.146          122.9          18.54
    0.1336              -38.57          30.57          53.66          46.48         -5.208         -14.58          88.38         -16.17         -4.122          122.9          18.54
    0.1603              -38.57          30.58          53.66          46.48         -5.206         -14.58          88.37         -16.16         -4.096          122.8          18.54
     0.187              -38.56          30.58          53.65          46.48         -5.205         -14.58          88.36         -16.15         -4.068          122.8          18.54
    0.2138              -38.56          30.58          53.65          46.48         -5.203         -14.58          88.35         -16.14         -4.039          122.8          18.54
    0.2405              -38.55          30.58          53.65          46.48         -5.201         -14.59          88.34         -16.13         -4.007          122.8          18.54
    0.2672              -38.55          30.58          53.64          46.48         -5.199         -14.59          88.32         -16.12         -3.973          122.7          18.54
    0.2939              -38.54          30.58          53.64          46.48         -5.196         -14.59          88.31         -16.11         -3.936          122.7          18.53
    0.3206              -38.53          30.58          53.64          46.48         -5.194         -14.59           88.3          -16.1         -3.896          122.7          18.53
    0.3474              -38.53          30.59          53.63          46.48         -5.191         -14.59          88.28         -16.09         -3.854          122.6          18.53
    0.3741              -38.52          30.59          53.63          46.48         -5.188         -14.59          88.27         -16.08         -3.807          122.6          18.53
    0.4008              -38.51          30.59          53.63          46.48         -5.185         -14.59          88.25         -16.06         -3.757          122.5          18.53
    0.4275               -38.5          30.59          53.62          46.48         -5.182         -14.59          88.23         -16.05         -3.702          122.5          18.52
    0.4543              -38.49          30.59          53.62          46.48         -5.178         -14.59          88.21         -16.03         -3.643          122.4          18.52
     0.481              -38.48           30.6          53.61          46.48         -5.174          -14.6          88.19         -16.01         -3.578          122.4          18.52
    0.5077              -38.47           30.6           53.6          46.48          -5.17          -14.6          88.16         -15.99         -3.507          122.3          18.52
    0.5344              -38.46           30.6           53.6          46.48         -5.165          -14.6          88.14         -15.97         -3.429          122.3          18.51
    0.5611              -38.44          30.61          53.59          46.48         -5.159          -14.6          88.11         -15.94         -3.343          122.2          18.51
    0.5879              -38.42          30.61          53.58          46.48         -5.153          -14.6          88.07         -15.92         -3.248          122.1          18.51
    0.6146              -38.41          30.61          53.57          46.49         -5.147         -14.61          88.04         -15.89         -3.143          122.0           18.5
    0.6413              -38.39          30.62          53.56          46.49          -5.14         -14.61           88.0         -15.85         -3.026          121.9           18.5
     0.668              -38.37          30.62          53.55          46.49         -5.131         -14.61          87.95         -15.82         -2.896          121.8          18.49
    0.6947              -38.34          30.63          53.54          46.49         -5.122         -14.62           87.9         -15.78         -2.749          121.6          18.49
    0.7215              -38.31          30.64          53.52          46.49         -5.112         -14.62          87.84         -15.73         -2.585          121.5          18.48
    0.7482              -38.28          30.64           53.5          46.49           -5.1         -14.63          87.78         -15.68         -2.399          121.3          18.47
    0.7749              -38.25          30.65          53.49          46.49         -5.087         -14.63          87.71         -15.62         -2.188          121.1          18.46
    0.8016               -38.2          30.66          53.46           46.5         -5.072         -14.64          87.62         -15.55         -1.948          120.9          18.46
    0.8283              -38.16          30.67          53.44           46.5         -5.055         -14.64          87.53         -15.47         -1.672          120.7          18.44
    0.8551               -38.1          30.68          53.41           46.5         -5.035         -14.65          87.42         -15.38         -1.353          120.4          18.43
    0.8818              -38.04           30.7          53.38           46.5         -5.012         -14.66          87.29         -15.27        -0.9821          120.1          18.42
    0.9085              -37.97          30.72          53.34          46.51         -4.984         -14.67          87.14         -15.15        -0.5485          119.7           18.4
    0.9352              -37.88          30.74          53.29          46.51         -4.952         -14.68          86.96         -15.01       -0.03741          119.2          18.38
    0.9619              -37.78          30.76          53.24          46.52         -4.914          -14.7          86.75         -14.83           0.57          118.7          18.36
    0.9887              -37.66          30.79          53.18          46.52         -4.869         -14.72           86.5         -14.63          1.298          118.0          18.33
     1.015              -37.51          30.82           53.1          46.53         -4.814         -14.74           86.2         -14.38          2.179          117.2          18.29
     1.042              -37.33          30.87           53.0          46.54         -4.746         -14.77          85.82         -14.07          3.255          116.3          18.25
     1.069               -37.1          30.92          52.88          46.55         -4.663          -14.8          85.36         -13.69          4.583          115.1           18.2
     1.096              -36.82          30.98          52.74          46.56         -4.559         -14.84          84.79         -13.22          6.239          113.6          18.13
     1.122              -36.47          31.07          52.55          46.58         -4.429         -14.89          84.07         -12.63          8.325          111.7          18.05
     1.149              -36.02          31.17          52.31           46.6         -4.263         -14.96          83.15         -11.88          10.98          109.4          17.94
     1.176              -35.45           31.3          52.01          46.63          -4.05         -15.04          81.98         -10.91          14.37          106.3          17.81
     1.202              -34.71          31.48          51.63          46.67         -3.778         -15.15          80.47         -9.678          18.73          102.4          17.64
     1.229              -33.77           31.7          51.13          46.72         -3.429         -15.29          78.54         -8.099          24.29          97.44          17.42
     1.256              -32.59          31.97          50.51          46.78         -2.991         -15.47          76.12         -6.112          31.29          91.18          17.14
     1.283              -31.15          32.31          49.75          46.85         -2.457         -15.68          73.17         -3.692          39.81          83.55           16.8
